<?xml version="1.0" encoding="UTF-8"?>
<svg width="120px" height="80px" viewBox="0 0 120 80" version="1.1" xmlns="http://www.w3.org/2000/svg" xmlns:xlink="http://www.w3.org/1999/xlink">
    <title>编组</title>
    <defs>
        <polygon id="path-1" points="0 0 120 0 120 80 0 80"></polygon>
        <polygon id="path-3" points="0 0 120 0 120 80 0 80"></polygon>
    </defs>
    <g id="页面-1" stroke="none" stroke-width="1" fill="none" fill-rule="evenodd">
        <g id="编组">
            <g id="蒙版" fill="#E6F7FF" fill-rule="nonzero">
                <polygon id="path-1" points="0 0 120 0 120 80 0 80"></polygon>
            </g>
            <g id="矩形-Clipped">
                <mask id="mask-2" fill="white">
                    <use xlink:href="#path-1"></use>
                </mask>
                <g id="path-1"></g>
                <g id="矩形" mask="url(#mask-2)">
                    <g transform="translate(20.000000, 20.000000)" id="path-3-link">
                        <g>
                            <path d="M2.5638852,0 L117.436115,0 C118.327634,0 118.65092,0.0928256 118.976846,0.2671327 C119.302772,0.4414398 119.55856,0.6972284 119.732867,1.0231543 C119.907174,1.3490802 120,1.6723665 120,2.5638852 L120,77.4361148 C120,78.3276335 119.907174,78.6509198 119.732867,78.9768457 C119.55856,79.3027716 119.302772,79.5585602 118.976846,79.7328673 C118.65092,79.9071744 118.327634,80 117.436115,80 L2.5638852,80 C1.6723665,80 1.3490802,79.9071744 1.0231543,79.7328673 C0.6972284,79.5585602 0.4414398,79.3027716 0.2671327,78.9768457 C0.0928256,78.6509198 0,78.3276335 0,77.4361148 L0,2.5638852 C0,1.6723665 0.0928256,1.3490802 0.2671327,1.0231543 C0.4414398,0.6972284 0.6972284,0.4414398 1.0231543,0.2671327 C1.3490802,0.0928256 1.6723665,0 2.5638852,0 Z" id="path-3" fill="#000000" fill-rule="nonzero"></path>
                        </g>
                        <g>
                            <path d="M2.5638852,0 L117.436115,0 C118.327634,0 118.65092,0.0928256 118.976846,0.2671327 C119.302772,0.4414398 119.55856,0.6972284 119.732867,1.0231543 C119.907174,1.3490802 120,1.6723665 120,2.5638852 L120,77.4361148 C120,78.3276335 119.907174,78.6509198 119.732867,78.9768457 C119.55856,79.3027716 119.302772,79.5585602 118.976846,79.7328673 C118.65092,79.9071744 118.327634,80 117.436115,80 L2.5638852,80 C1.6723665,80 1.3490802,79.9071744 1.0231543,79.7328673 C0.6972284,79.5585602 0.4414398,79.3027716 0.2671327,78.9768457 C0.0928256,78.6509198 0,78.3276335 0,77.4361148 L0,2.5638852 C0,1.6723665 0.0928256,1.3490802 0.2671327,1.0231543 C0.4414398,0.6972284 0.6972284,0.4414398 1.0231543,0.2671327 C1.3490802,0.0928256 1.6723665,0 2.5638852,0 Z" id="path-3" fill="#1890FF"></path>
                        </g>
                    </g>
                </g>
            </g>
            <g id="矩形备份-Clipped">
                <mask id="mask-4" fill="white">
                    <use xlink:href="#path-3"></use>
                </mask>
                <g id="path-1"></g>
                <g id="矩形备份" mask="url(#mask-4)">
                    <g transform="translate(56.000000, 40.000000)" id="path-5-link">
                        <g>
                            <path d="M2.5638852,0 L117.436115,0 C118.327634,0 118.65092,0.0928256 118.976846,0.2671327 C119.302772,0.4414398 119.55856,0.6972284 119.732867,1.0231543 C119.907174,1.3490802 120,1.6723665 120,2.5638852 L120,77.436115 C120,78.327634 119.907174,78.65092 119.732867,78.976846 C119.55856,79.302772 119.302772,79.55856 118.976846,79.732867 C118.65092,79.907174 118.327634,80 117.436115,80 L2.5638852,80 C1.6723665,80 1.3490802,79.907174 1.0231543,79.732867 C0.6972284,79.55856 0.4414398,79.302772 0.2671327,78.976846 C0.0928256,78.65092 0,78.327634 0,77.436115 L0,2.5638852 C0,1.6723665 0.0928256,1.3490802 0.2671327,1.0231543 C0.4414398,0.6972284 0.6972284,0.4414398 1.0231543,0.2671327 C1.3490802,0.0928256 1.6723665,0 2.5638852,0 Z" id="path-5" fill="#000000" fill-rule="nonzero"></path>
                        </g>
                        <g>
                            <path d="M2.5638852,0 L117.436115,0 C118.327634,0 118.65092,0.0928256 118.976846,0.2671327 C119.302772,0.4414398 119.55856,0.6972284 119.732867,1.0231543 C119.907174,1.3490802 120,1.6723665 120,2.5638852 L120,77.436115 C120,78.327634 119.907174,78.65092 119.732867,78.976846 C119.55856,79.302772 119.302772,79.55856 118.976846,79.732867 C118.65092,79.907174 118.327634,80 117.436115,80 L2.5638852,80 C1.6723665,80 1.3490802,79.907174 1.0231543,79.732867 C0.6972284,79.55856 0.4414398,79.302772 0.2671327,78.976846 C0.0928256,78.65092 0,78.327634 0,77.436115 L0,2.5638852 C0,1.6723665 0.0928256,1.3490802 0.2671327,1.0231543 C0.4414398,0.6972284 0.6972284,0.4414398 1.0231543,0.2671327 C1.3490802,0.0928256 1.6723665,0 2.5638852,0 Z" id="path-5" fill="#FFFFFF"></path>
                        </g>
                    </g>
                </g>
            </g>
        </g>
    </g>
</svg>